<svg width="31" height="32" viewBox="0 0 31 32" fill="none" xmlns="http://www.w3.org/2000/svg">
<g clip-path="url(#clip0_137_431)">
<mask id="mask0_137_431" style="mask-type:luminance" maskUnits="userSpaceOnUse" x="0" y="0" width="31" height="32">
<path d="M30.9273 0.809082H0V31.7908H30.9273V0.809082Z" fill="white"/>
</mask>
<g mask="url(#mask0_137_431)">
<path d="M15.4645 0.809254C6.92402 0.809254 0.018974 7.79981 0.0371452 16.4008C0.0371452 24.0684 5.61569 30.6015 13.1567 31.7544V20.4999H9.32261V16.4008H13.1567V13.6741C13.1567 9.1723 15.3373 7.17761 19.0623 7.17761C20.1163 7.17761 21.1884 7.23251 22.2423 7.37891V10.9474H19.6983C18.1174 10.9474 17.5723 12.4663 17.5723 14.1499V16.3825H22.206L21.57 20.4816H17.5723V31.7727C26.0401 30.6564 31.982 22.824 30.8736 14.2963C29.8378 6.57372 23.2417 0.772654 15.4645 0.809254Z" fill="#22795F"/>
</g>
</g>
<defs>
<clipPath id="clip0_137_431">
<rect width="31" height="31" fill="white" transform="translate(0 0.809082)"/>
</clipPath>
</defs>
</svg>
