<svg width="150" height="35" viewBox="0 0 150 35" fill="none" xmlns="http://www.w3.org/2000/svg">
<path d="M11.6671 31.9883C8.86631 26.9292 4.69153 17.7069 2.20779 7.06167C1.73219 4.63751 1.0452 2.37145 0.252516 1.37017C-0.0645563 0.790484 0.0411345 0 0.78097 0H8.91916C9.81753 0 9.97607 0.790485 9.5533 1.31747C7.96794 3.32004 8.02079 3.32004 8.81347 7.06167C10.3988 14.0179 12.6712 20.7107 16.2647 27.7724C16.5289 28.2467 16.9517 28.2467 17.2159 27.7724C20.0695 21.8174 22.3419 15.1773 23.7159 9.48582C24.6671 4.95371 24.5085 3.79433 23.0289 1.52827C22.6061 0.843185 22.659 0 23.6102 0H29.4232C30.163 0 30.2687 0.790484 29.9516 1.37017C28.6833 3.37273 28.5248 3.32004 27.5207 7.00897C24.4029 18.2866 21.4435 25.6117 18.0086 32.1991C17.2159 33.7801 16.5817 34.2016 15.1021 34.2016C13.6224 34.2016 12.6183 33.8328 11.6671 31.9883Z" fill="#25795E"/>
<path d="M35.8173 32.2518C36.9799 30.2493 37.1912 30.302 38.301 26.6657C41.1018 18.0758 44.431 9.38046 48.6587 1.21211C49.0814 0.474329 49.557 0.0527344 50.4026 0.0527344H52.2522C53.0977 0.0527344 53.6261 0.474329 53.9961 1.21211C58.2237 9.48586 61.553 18.0758 64.0895 26.6657C64.7765 29.0372 65.6749 31.2505 66.4147 32.2518C66.7318 32.8315 66.6261 33.622 65.8863 33.622H57.5367C56.5855 33.622 56.4798 32.8315 56.9026 32.2518C58.4879 30.2493 58.3822 30.302 57.431 26.613L57.0082 25.1375C56.9026 24.7686 56.6383 24.5578 56.2684 24.5578H43.1099C42.74 24.5578 42.4229 24.7686 42.3701 25.1902C41.6302 28.8791 41.7888 30.0385 43.3213 32.1464C43.7969 32.8315 43.7441 33.6747 42.6872 33.6747H36.2929C35.6059 33.6747 35.5002 32.8842 35.8173 32.3045V32.2518ZM43.9554 21.9228H55.2115C55.6871 21.9228 55.8985 21.6593 55.7928 21.185C54.1546 16.284 52.1993 11.4357 50.0327 6.64011C49.8213 6.11312 49.3457 6.06042 49.1343 6.53471C47.0205 10.9087 45.0124 15.9678 43.4798 21.1323C43.3213 21.6066 43.4798 21.8701 44.0083 21.8701L43.9554 21.9228Z" fill="#25795E"/>
<path d="M101.082 30.6708L83.4316 7.58866C83.0617 7.11437 82.5861 7.21976 82.5861 7.85215C82.6918 13.8071 82.9032 19.7621 83.5373 25.6644C83.9072 28.8264 84.5942 30.1965 86.4438 32.2518C86.9723 32.8315 86.8137 33.622 85.9154 33.622H79.1512C78.2528 33.622 78.0943 32.9369 78.4642 32.3045C79.5739 30.3019 79.8381 29.0371 79.8381 26.0333V7.16706C79.8381 3.37273 79.8381 3.37273 78.2528 1.37017C77.83 0.790484 77.9886 0 78.8869 0H84.0129C84.7528 0 85.2284 0.210798 85.9154 0.895885L101.769 21.5539C102.139 22.0282 102.615 21.8701 102.615 21.2904C102.509 16.6529 102.35 12.1208 101.98 7.53596C101.452 4.58481 100.712 3.26734 98.5454 1.37017C98.017 0.790484 98.1755 0.0526982 99.1796 0.0526982H105.997C106.842 0.0526982 106.948 0.790486 106.631 1.52827C105.574 3.68893 105.362 5.1118 105.362 8.43184V31.5667C105.362 33.7801 105.098 34.2016 103.936 34.2016C102.297 34.2016 102.667 32.7788 101.135 30.7762L101.082 30.6708Z" fill="#25795E"/>
<path d="M118.731 32.2518C119.894 30.2493 120.105 30.302 121.215 26.6657C124.016 18.0758 127.345 9.38046 131.573 1.21211C131.996 0.474329 132.471 0.0527344 133.317 0.0527344H135.166C136.012 0.0527344 136.54 0.474329 136.91 1.21211C141.138 9.48586 144.467 18.0758 147.004 26.6657C147.691 29.0372 148.589 31.2505 149.329 32.2518C149.646 32.8315 149.54 33.622 148.8 33.622H140.451C139.5 33.622 139.394 32.8315 139.817 32.2518C141.402 30.2493 141.296 30.302 140.345 26.613L139.922 25.1375C139.817 24.7686 139.552 24.5578 139.182 24.5578H126.024C125.654 24.5578 125.337 24.7686 125.284 25.1902C124.544 28.8791 124.703 30.0385 126.235 32.1464C126.711 32.8315 126.658 33.6747 125.601 33.6747H119.207C118.52 33.6747 118.414 32.8842 118.731 32.3045V32.2518ZM126.87 21.9228H138.126C138.601 21.9228 138.813 21.6593 138.707 21.185C137.069 16.284 135.113 11.4357 132.947 6.64011C132.735 6.11312 132.26 6.06042 132.048 6.53471C129.935 10.9087 127.926 15.9678 126.394 21.1323C126.235 21.6066 126.394 21.8701 126.922 21.8701L126.87 21.9228Z" fill="#25795E"/>
</svg>
