<svg width="31" height="32" viewBox="0 0 31 32" fill="none" xmlns="http://www.w3.org/2000/svg">
<path d="M10.0741 16.3261C10.0741 13.4677 12.3275 11.1538 15.1111 11.1538C17.8947 11.1538 20.1481 13.4677 20.1481 16.3261C20.1481 19.1845 17.8947 21.4984 15.1111 21.4984C12.3275 21.4984 10.0741 19.1845 10.0741 16.3261ZM7.35673 16.3261C7.35673 20.7158 10.8363 24.2888 15.1111 24.2547C19.386 24.2547 22.8655 20.6818 22.8324 16.2921C22.8324 11.9024 19.3528 8.32939 15.078 8.36342C10.8031 8.36342 7.32359 11.9364 7.35673 16.3261ZM21.3411 8.02313C21.3411 9.04399 22.1696 9.8947 23.1637 9.8947C24.1579 9.8947 24.9864 9.04399 24.9864 8.02313C24.9864 7.00228 24.1579 6.15156 23.1637 6.15156C22.1696 6.15156 21.3411 7.00228 21.3411 8.02313ZM9.01365 28.9507C7.55556 28.8826 6.7271 28.6444 6.19688 28.4403C5.50097 28.168 5.0039 27.8277 4.47368 27.2833C3.94347 26.7388 3.61209 26.2284 3.34698 25.5138C3.14815 24.9693 2.88304 24.1527 2.81676 22.6214C2.75049 20.988 2.71735 20.5116 2.71735 16.3601C2.71735 12.2086 2.71735 11.7322 2.78363 10.0989C2.8499 8.60162 3.08187 7.7509 3.2807 7.20645C3.54581 6.49185 3.87719 5.98142 4.40741 5.43696C4.93762 4.89251 5.4347 4.55222 6.1306 4.27999C6.66082 4.07582 7.45614 3.80359 8.94737 3.73554C10.538 3.66748 11.0019 3.63345 15.0448 3.63345C19.0877 3.63345 19.5517 3.63345 21.1423 3.70151C22.6004 3.76957 23.4289 4.00777 23.9591 4.21194C24.655 4.48416 25.152 4.82445 25.6823 5.36891C26.2125 5.91336 26.5439 6.42379 26.809 7.13839C27.0078 7.68285 27.2729 8.49953 27.3392 10.0308C27.4055 11.6642 27.4386 12.1406 27.4386 16.2921C27.4386 20.4436 27.4386 20.92 27.3723 22.5533C27.306 24.0506 27.0741 24.9013 26.8752 25.4457C26.6101 26.1603 26.2788 26.6708 25.7485 27.2152C25.2183 27.7597 24.7212 28.1 24.0253 28.3722C23.4951 28.5764 22.6998 28.8486 21.2086 28.9167C19.6179 28.9847 19.154 29.0187 15.1111 29.0187C11.0682 29.0187 10.6043 29.0187 9.01365 28.9507ZM8.84795 0.911168C7.25731 0.979225 6.1306 1.25145 5.20273 1.62577C4.20858 2.03411 3.38012 2.54454 2.51852 3.42928C1.69006 4.27999 1.15984 5.16474 0.795322 6.18559C0.430799 7.17242 0.165692 8.29536 0.0994152 9.96276C0 11.5961 0 12.1406 0 16.3261C0 20.5456 0 21.0561 0.0994152 22.7235C0.165692 24.3568 0.430799 25.5138 0.795322 26.4666C1.19298 27.4875 1.69006 28.3382 2.55166 29.2229C3.38012 30.0736 4.24172 30.6181 5.23587 30.9924C6.19688 31.3667 7.29045 31.6389 8.91423 31.707C10.538 31.7751 11.0351 31.8091 15.1442 31.7751C19.2534 31.7751 19.7505 31.7751 21.3743 31.673C22.9649 31.6049 24.0916 31.3327 25.0195 30.9584C26.0136 30.55 26.8421 30.0396 27.7037 29.1549C28.5322 28.3041 29.0624 27.4194 29.4269 26.3985C29.7914 25.4117 30.0565 24.2888 30.1228 22.6214C30.1891 20.954 30.2222 20.4436 30.1891 16.224C30.1891 12.0045 30.1891 11.494 30.0897 9.82665C30.0234 8.19328 29.7583 7.0363 29.3938 6.04948C28.9961 5.02862 28.499 4.17791 27.6374 3.29317C26.809 2.44245 25.9474 1.898 24.9532 1.52368C23.9922 1.14937 22.8986 0.877139 21.2749 0.809082C19.6842 0.809082 19.154 0.809082 15.078 0.809082C10.9688 0.809082 10.4717 0.809082 8.84795 0.911168Z" fill="#22795F"/>
</svg>
