<svg width="27" height="32" viewBox="0 0 27 32" fill="none" xmlns="http://www.w3.org/2000/svg">
<path d="M22.9055 7.4448C22.7067 7.34271 22.5078 7.2066 22.309 7.10451C21.7457 6.7302 21.2486 6.28783 20.7846 5.7774C19.6579 4.45029 19.2271 3.08915 19.0614 2.13635C18.9289 1.35369 18.9952 0.843262 18.9952 0.843262H13.8256V21.4305C13.8256 21.7028 13.8256 21.975 13.8256 22.2472C13.8256 22.2472 13.8256 22.3153 13.8256 22.3493C13.8256 22.3493 13.8256 22.3493 13.8256 22.3833C13.7262 23.8806 12.8977 25.2417 11.6053 25.9904C10.9425 26.3647 10.2135 26.5688 9.4513 26.5688C7.0322 26.5688 5.07704 24.5612 5.07704 22.043C5.07704 19.5249 7.0322 17.5172 9.4513 17.5172C9.91524 17.5172 10.3792 17.5853 10.81 17.7214V12.3109C8.15891 11.9706 5.44156 12.7533 3.38698 14.5568C2.49224 15.3394 1.73006 16.2922 1.1667 17.3811C0.934735 17.7554 0.106276 19.3208 0.00686128 21.8389C-0.0594155 23.2681 0.371384 24.7653 0.570214 25.3778C0.702768 25.7522 1.19984 26.9772 1.96203 28.0321C2.59166 28.8828 3.35384 29.5974 4.21544 30.2099C6.73395 31.9453 9.51758 31.8433 9.51758 31.8433C10.0147 31.8433 11.6053 31.8433 13.4611 30.9585C15.4825 29.9717 16.6423 28.5085 16.6423 28.5085C17.3714 27.6237 17.9679 26.6369 18.3655 25.548C18.8295 24.2889 18.9952 22.7576 18.9952 22.1451V11.222L19.8899 11.8345C19.8899 11.8345 21.0829 12.6171 22.9718 13.1616C24.3304 13.5359 26.1531 13.604 26.1531 13.604V8.32954C25.5234 8.3976 24.231 8.19343 22.9055 7.51286V7.4448Z" fill="#22795F"/>
</svg>
