<svg width="97" height="137" viewBox="0 0 97 137" fill="none" xmlns="http://www.w3.org/2000/svg">
<path d="M22.635 75.4732C21.4331 74.1454 20.2814 72.7113 18.9794 71.4897C16.4755 69.0466 13.6711 67.0283 10.6665 65.3287C9.91533 64.9038 9.1141 64.6382 8.31286 64.2133C8.06247 64.054 7.91224 63.6822 7.71193 63.4166C8.01239 63.3104 8.41301 63.0979 8.6634 63.2042C9.61487 63.5228 10.5663 63.9477 11.5178 64.4258C13.2204 65.3287 14.873 66.2847 16.5756 67.1876C16.6257 67.1345 16.6758 67.0814 16.7259 67.0283C15.9747 65.8598 15.2736 64.6382 14.4724 63.5228C13.7212 62.4075 12.92 61.3983 12.1688 60.283C11.8684 59.8581 11.2674 59.2738 11.8684 58.7427C12.5194 58.1584 12.92 58.9551 13.2705 59.38C14.5225 61.0796 15.7243 62.8324 16.9763 64.5851C18.779 67.0814 20.5318 69.6308 22.3846 72.0209C25.0387 75.367 28.444 77.757 32.1998 79.5098C36.5565 81.5812 40.9634 83.4932 45.6706 85.6177C45.6706 84.6086 45.6706 83.9181 45.6706 83.2277C45.5204 80.8376 44.9195 78.6068 43.317 76.8541C41.2638 74.5703 38.8601 72.8707 36.3061 71.3304C34.4032 70.1619 32.5003 69.0997 30.5973 67.9312C30.1967 67.6656 29.8462 67.3469 29.5457 66.9752C29.4455 66.8158 29.3955 66.444 29.5457 66.2847C29.5958 66.1785 29.9463 66.0722 30.1466 66.1254C30.4972 66.2316 30.8477 66.4971 31.1982 66.6565C32.9009 67.6656 34.6035 68.6217 36.4564 69.4715C36.3562 69.3121 36.3061 69.1528 36.206 68.9934C33.9024 65.3818 31.5488 61.7701 29.2452 58.1584C28.9948 57.7335 28.7444 57.3086 28.5441 56.8306C28.4941 56.6182 28.6443 56.2995 28.6944 56.0339C28.9448 56.087 29.2452 56.0339 29.3955 56.2464C29.7961 56.7244 30.0965 57.3617 30.4972 57.8398C33.5519 61.7701 36.5065 65.7004 39.6613 69.5246C41.3139 71.5428 43.2669 73.2956 45.1198 75.1545C45.3201 75.367 45.5705 75.4732 45.8709 75.6856C45.8709 75.2607 45.921 74.9952 45.9711 74.7296C46.0712 71.7022 46.1714 68.6217 46.2215 65.5942C46.2215 63.3635 45.6706 61.3983 43.9179 59.858C38.3092 54.8655 32.8007 49.6604 26.491 45.5707C24.5379 44.3491 22.5348 43.2338 20.5317 42.1184C20.0811 41.8528 19.6304 41.5342 19.8807 40.8968C20.1311 40.2063 20.6319 40.4188 21.1327 40.6844C23.8369 42.1715 26.491 43.6056 29.3955 45.1989C29.1451 44.7209 29.0449 44.4554 28.8947 44.1367C27.2421 41.5342 25.5395 38.8785 23.8869 36.276C23.4863 35.6386 23.4362 34.9482 23.8869 34.6826C24.538 34.3108 24.8885 34.6826 25.239 35.2137C28.0434 39.1972 30.9479 43.1275 33.602 47.2172C34.8539 49.1824 36.7568 50.1915 38.3092 51.6256L38.5096 51.4662C38.2091 50.7227 37.9086 49.926 37.5581 49.1824C37.3077 48.6513 37.0573 48.1201 36.857 47.589C36.7568 47.3234 36.857 47.0048 36.857 46.6861C37.1575 46.6861 37.5581 46.6861 37.7584 46.8454C38.159 47.2703 38.5095 47.7483 38.81 48.2795C39.8616 50.2446 40.8131 52.2629 42.015 54.1219C42.7161 55.1841 43.8678 55.9277 44.8193 56.8306C45.27 57.2555 45.7708 57.6273 46.3216 58.1584C46.3216 57.8398 46.4218 57.6273 46.4218 57.4149C46.5219 54.1219 46.6221 50.7758 46.6722 47.4828C46.6722 45.5176 46.4719 43.4993 45.27 41.9059C42.5658 38.4005 39.6613 35.1075 36.0558 32.6112C34.0026 31.1772 31.9995 29.69 29.9463 28.2029C29.746 28.0435 29.6959 27.778 29.5958 27.5124C29.8462 27.4593 30.1466 27.2468 30.397 27.2999C31.048 27.5124 31.699 27.8311 32.2499 28.2029C34.8539 30.0618 37.4579 31.9208 40.062 33.7797C40.2122 33.8859 40.3123 33.939 40.5627 33.939C40.112 33.2486 39.6613 32.505 39.2106 31.8145C37.2576 28.9995 35.2545 26.1846 33.2514 23.3696C33.001 22.9978 32.7506 22.5198 32.6004 22.0418C32.5503 21.8293 32.7006 21.5107 32.7506 21.2451C33.001 21.3513 33.3015 21.3513 33.4517 21.5107C35.3046 23.9007 37.1575 26.3439 38.9102 28.7871C41.414 32.2394 43.8678 35.7449 46.3216 39.2503C46.4218 39.4096 46.4719 39.569 46.572 39.6752C46.6221 39.6752 46.6722 39.569 46.7723 39.5159C46.7723 39.4096 46.8224 39.2503 46.8224 39.1441C46.9726 32.8237 47.1729 26.5033 47.3232 20.1828C47.3232 18.8019 47.223 17.4741 46.3717 16.3587C45.0196 14.4998 43.6175 12.6408 42.2153 10.7819C42.065 10.5694 41.8147 10.4101 41.7145 10.1976C41.6144 9.93208 41.6644 9.6134 41.6144 9.34784C41.9148 9.34784 42.2654 9.24161 42.4156 9.40095C43.1668 10.0383 43.8678 10.7288 44.5689 11.4723C45.4703 12.4815 46.3717 13.5437 47.3733 14.7122C47.3733 14.2342 47.4233 13.9686 47.4734 13.65C47.5736 9.50718 47.6737 5.31127 47.824 1.16848C47.824 1.00914 47.824 0.849805 47.824 0.743579C47.9742 0.478015 48.1745 0.265564 48.3748 0C48.5751 0.265564 48.8756 0.531126 48.9257 0.849803C49.0258 3.23988 49.0759 5.57684 49.0759 7.96691C49.0759 9.98519 49.0759 12.0566 49.0759 14.0749C49.176 14.0749 49.2762 14.0749 49.3764 14.128C49.4765 13.9686 49.6267 13.8093 49.7269 13.65C51.5297 9.93208 54.2339 7.17022 57.3887 4.83326C57.4889 4.72703 57.6391 4.62081 57.7393 4.62081C57.9897 4.62081 58.2401 4.67392 58.4905 4.72703C58.4404 4.9926 58.4904 5.31128 58.3402 5.47061C57.8394 6.00174 57.2385 6.47975 56.6877 6.90466C54.5343 8.55115 52.7315 10.5694 51.6799 13.1188C50.8787 14.9778 50.428 17.0492 49.9272 19.0144C49.2762 21.5638 49.6768 24.1663 49.7269 26.7688C49.7269 28.256 49.8271 29.69 49.8771 31.1772C49.8771 31.3896 49.8771 31.549 49.9773 31.7614C50.8787 30.7523 51.7801 29.8494 52.5813 28.8933C56.237 24.6974 60.6438 21.5107 65.0506 18.3239C65.5013 18.0052 66.2024 17.421 66.6531 18.1646C67.0537 18.9081 66.2024 19.1737 65.8018 19.4924C64.2494 20.6077 62.6469 21.7231 61.0945 22.9447C63.8988 22.3605 66.603 20.9264 69.4574 22.2542C69.4574 22.3605 69.5075 22.4667 69.5576 22.626C69.1569 22.8385 68.7563 23.104 68.3056 23.1572C65.1507 23.4758 62.096 24.3256 59.1915 25.6535C57.0382 26.6626 55.2855 28.2029 53.7832 30.1149C52.4311 31.7614 50.9288 33.3548 50.5782 35.6386C50.3278 37.3383 50.1776 39.091 50.1776 40.8437C50.1776 44.4022 50.3779 47.9608 50.5281 51.5725C50.5281 51.7318 50.5281 51.838 50.5782 52.0505C50.7284 51.9443 50.8286 51.9443 50.8787 51.838C53.3325 48.7575 56.1368 46.0487 59.2917 43.818C60.8942 42.7026 62.3464 41.2686 64.049 40.3126C66.603 38.8785 68.3557 36.7009 70.0083 34.3108C70.459 33.6735 71.11 33.1423 71.6608 32.6643C71.8111 32.505 72.1616 32.6643 72.412 32.6112C72.412 32.9299 72.5121 33.2486 72.412 33.461C71.7109 34.5764 71.0098 35.6386 70.2587 36.7009C70.0583 36.9665 69.858 37.1789 69.7078 37.5507C69.9081 37.4976 70.1084 37.3914 70.3588 37.3383C72.2617 36.6478 74.1647 35.9042 76.0676 35.2137C76.4682 35.0544 77.0191 34.842 77.1693 35.4793C77.3196 36.1167 76.9189 36.3822 76.3681 36.5416C73.8141 37.232 71.4104 38.4005 69.0568 39.7283C69.8079 39.7283 70.5591 39.7283 71.3103 39.7283C71.6107 39.7283 71.9112 40.047 72.2117 40.2063C71.9112 40.4188 71.6608 40.7906 71.3604 40.8437C68.8064 41.2155 66.2525 41.5342 63.999 43.0213C61.0945 44.8803 58.4904 47.111 56.0367 49.6073C54.5844 51.0413 53.2323 52.5816 52.3309 54.5468C51.3294 56.7244 50.6784 58.9551 50.8286 61.3983C50.9788 63.5228 50.9788 65.6473 51.0289 67.825C51.0289 68.0905 51.1291 68.4092 51.1791 68.9403C51.5297 68.3561 51.7801 67.9312 52.0305 67.5594C52.6815 66.6034 53.3325 65.5411 54.0836 64.6913C56.8379 61.6108 59.2917 58.3178 60.6438 54.2281C60.7439 53.9625 61.1946 53.6439 61.445 53.697C61.9458 53.8032 61.7956 54.2281 61.6453 54.5999C61.3949 55.2372 61.1446 55.8746 60.8942 56.5119C60.6438 57.1493 60.3934 57.7867 60.2932 58.5302C60.4435 58.424 60.6438 58.3178 60.794 58.2116C62.6469 56.9369 64.4497 55.7153 66.3025 54.4406C66.5028 54.3343 66.6531 54.1219 66.8534 54.1219C67.1538 54.1219 67.4543 54.175 67.7548 54.2281C67.6546 54.5468 67.7047 54.9717 67.5044 55.131C66.5028 55.9808 65.4512 56.7244 64.4497 57.5211C60.4936 60.6547 56.9881 64.2133 54.2339 68.5685C53.1322 70.3744 52.3309 72.3927 51.4295 74.3047C51.3294 74.4641 51.3795 74.7296 51.3795 74.889C51.4295 77.4384 51.5297 79.9878 51.5798 82.5372C51.5798 82.6434 51.5798 82.7496 51.6298 82.8559C51.73 82.9621 51.8302 83.0152 51.9303 83.1214C52.2809 82.6434 52.5312 82.0592 52.9819 81.6874C53.8332 81.05 54.6846 80.4127 55.636 79.9347C57.7894 78.7662 59.9427 77.6508 62.096 76.5886C63.398 76.0043 64.7501 75.5794 66.0521 75.0483C66.5028 74.889 66.9535 74.5703 67.254 74.1454C68.2556 72.6051 69.207 71.0117 70.0583 69.4183C70.5591 68.5685 70.8596 67.5594 71.3103 66.6565C71.4104 66.444 71.7109 66.2316 71.8611 66.2847C72.0614 66.3378 72.3619 66.6565 72.3619 66.8689C72.3619 67.4001 72.2617 67.9843 72.0614 68.4623C71.4104 70.215 70.7094 71.9146 70.0083 73.8267C70.509 73.6143 70.9597 73.5611 71.3604 73.2956C73.8141 71.5429 76.318 69.7901 78.6717 67.8781C81.2256 65.8067 83.6794 63.5759 86.1833 61.3452C87.0847 60.4954 87.8859 59.5394 88.7372 58.6365C88.8875 58.4771 89.0377 58.3178 89.1879 58.2647C89.4383 58.2647 89.7388 58.2647 90.0392 58.2647C89.9892 58.5833 90.0392 59.0082 89.889 59.1676C87.936 61.2921 85.9329 63.4166 83.9799 65.5411C81.7264 67.9312 79.4729 70.3213 77.1693 72.7644C77.4698 72.7644 77.7703 72.6582 78.1208 72.6582C81.1255 72.7645 84.1802 72.8707 87.1848 73.03C88.0361 73.03 88.8374 73.1362 89.6887 73.1362C91.1409 73.1362 92.5431 73.1362 93.9954 73.1893C94.2457 73.1893 94.4961 73.5611 94.7465 73.7736C94.4461 73.986 94.1957 74.3578 93.8952 74.3578C92.3929 74.4109 90.8405 74.3578 89.3382 74.3578C89.0878 74.3578 88.7873 74.3578 88.2865 74.3578C89.5885 75.3139 90.6902 76.1105 91.792 76.9072C92.2427 77.2259 92.9437 77.5446 92.493 78.2351C92.0924 78.8724 91.6417 78.1288 91.2411 77.9695C89.5385 77.1197 87.8358 76.1637 86.0831 75.367C85.332 75.0483 84.4806 74.9952 83.6293 74.9421C80.0738 74.8358 76.5183 74.6234 73.063 75.4732C70.9097 76.0043 68.8565 76.9604 66.7532 77.757C65.6515 78.1819 64.5999 78.66 63.5983 79.1911C60.6939 80.7314 58.5405 83.1745 56.4373 85.7239C54.1838 88.5389 53.2824 92.0444 52.2308 95.4436C51.7801 96.9307 52.1306 98.7366 52.1306 100.436C52.1306 100.914 52.1807 101.339 52.2308 101.817C52.3309 101.817 52.381 101.817 52.4311 101.817C54.0336 100.224 55.9365 99.2146 57.8394 98.1523C58.7909 97.6212 59.5922 96.6652 60.3934 95.8154C63.4481 92.4162 66.0021 88.6451 67.7047 84.2899C67.8549 83.865 68.1053 83.3339 68.6562 83.5994C69.207 83.865 69.0067 84.3961 68.8064 84.821C68.1053 86.68 67.4543 88.4858 66.7032 90.3979C68.2055 89.6012 69.6077 88.8576 71.0098 88.1671C71.2602 88.0609 71.5106 87.9016 71.761 87.9016C72.0614 87.9016 72.3118 88.114 72.6123 88.2203C72.4621 88.5389 72.3619 88.9107 72.1616 89.1232C71.9613 89.3356 71.6107 89.495 71.3103 89.6543C68.7062 91.0883 66.2525 92.7348 64.1993 94.9656C63.8988 95.2842 63.6985 95.6029 63.2979 96.0809C64.9504 95.7623 66.4528 95.3905 67.905 95.1249C71.9613 94.3813 76.0175 93.6377 80.0738 92.9473C81.8265 92.6286 82.7279 91.2477 83.7295 89.973C84.08 89.4949 84.2803 88.9107 84.681 88.4327C84.8813 88.2203 85.2318 88.114 85.5323 88.0078C85.5323 88.3265 85.7326 88.6983 85.6324 88.9638C85.332 89.9199 84.9814 90.8759 84.5307 92.0975C86.0831 91.6195 87.5354 91.1946 88.8875 90.7166C91.1409 89.9199 93.3944 89.1232 95.698 88.2734C95.8983 88.2202 96.0986 88.1671 96.2488 88.2203C96.4992 88.2734 96.7496 88.4858 97 88.592C96.8498 88.8576 96.7997 89.2294 96.5994 89.3356C95.5978 89.8667 94.5963 90.3448 93.5947 90.7697C91.2912 91.6726 88.9876 92.5755 86.4337 93.5846C87.4853 94.0095 88.3366 94.3813 89.1378 94.7531C90.3397 95.2311 91.5416 95.7623 92.7434 96.2403C93.094 96.3996 93.3944 96.559 93.6448 96.8245C93.795 96.9839 93.8451 97.3025 93.8952 97.5681C93.6448 97.6212 93.3443 97.8337 93.144 97.7805C91.3913 97.1963 89.6386 96.6121 87.936 95.9747C85.5323 95.0718 83.1285 95.0187 80.6748 95.656C78.6717 96.1872 76.6686 96.7183 74.6154 97.1963C72.8126 97.6212 70.9597 98.0461 69.1069 98.4179C64.4497 99.3208 60.0929 101.18 56.1368 103.942C54.334 105.216 53.0821 106.81 52.6314 109.04C52.4812 109.89 52.4812 110.846 52.4812 111.749C52.6314 116.636 52.7816 121.522 52.9319 126.408C52.9319 127.311 53.032 128.214 53.1822 129.117C53.4326 130.498 54.1337 130.923 55.4357 130.71C65.5013 129.064 74.1647 124.337 81.8766 117.432C85.7326 113.98 89.1879 110.103 92.2426 105.907C92.8436 105.11 93.2442 104.154 93.7951 103.304C93.9453 103.092 94.1456 102.986 94.3459 102.826C94.3459 103.092 94.5462 103.464 94.4461 103.676C92.6933 107.978 90.6902 112.174 88.0361 115.998C81.0754 125.824 71.9613 132.091 60.6939 134.853C56.4874 135.862 52.2308 136.553 47.9241 136.447C36.206 136.181 25.7398 132.144 16.6257 124.178C10.316 118.654 5.60867 111.855 2.50387 103.835C2.30356 103.304 2.25349 102.667 2.15333 102.083L2.4538 101.923C2.65411 102.189 2.9045 102.401 3.10481 102.667C5.00775 105.269 6.76046 108.031 8.81363 110.528C16.5256 119.982 25.84 126.833 37.3578 129.914C39.0604 130.339 40.8131 130.604 42.5658 130.87C42.8663 130.87 43.4171 130.71 43.5173 130.445C43.9179 129.489 44.4187 128.533 44.4688 127.524C44.6691 122.478 44.7692 117.432 44.8694 112.387C44.9195 110.421 44.9695 108.403 45.0697 106.438C45.2199 103.676 43.9179 101.764 41.8147 100.489C36.4063 97.0901 30.4471 95.5498 24.1874 95.3374C21.6835 95.2311 19.2297 94.7 16.7759 93.9564C14.5725 93.266 12.4192 93.5846 10.2659 94.222C9.51471 94.4344 8.71348 94.7 7.96232 94.8062C7.71193 94.8062 7.41147 94.4876 7.111 94.3282C7.36139 94.1158 7.5617 93.8502 7.81208 93.744C9.31441 93.1597 10.7666 92.5755 12.269 91.9912C12.3691 91.9912 12.4192 91.8319 12.5694 91.7257C12.0186 91.3539 11.5178 90.9821 11.017 90.6103C9.21425 89.1763 7.41146 87.7422 5.5586 86.3613C3.95612 85.1397 2.20341 84.0775 0.600935 82.909C0.350548 82.6965 0.20031 82.3247 0 82.0592C0.350542 81.9529 0.801245 81.6874 1.10171 81.7936C2.10326 82.1654 3.05473 82.6434 3.95612 83.1745C6.81054 84.6617 9.61487 86.202 12.4693 87.7422C13.8214 88.4858 15.1234 89.3356 16.4254 90.0792C18.2783 91.1415 20.2814 91.1946 22.2845 91.407C25.0888 91.6726 27.8931 91.8319 30.6975 92.0444C30.9479 92.0444 31.1982 92.0444 31.6489 92.0444C31.0981 90.8228 30.6474 89.7074 30.1466 88.6451C29.9463 88.1671 29.5958 87.6891 29.4455 87.158C29.3454 86.8924 29.4455 86.5206 29.4455 86.202C29.746 86.3082 30.1466 86.3082 30.2969 86.4675C30.9479 87.2642 31.5989 88.0609 32.0996 88.9638C33.2013 91.0883 35.0041 92.2037 36.9571 93.1597C39.461 94.3813 42.015 95.4967 44.5188 96.6652C44.6691 96.7183 44.8694 96.8245 45.1198 96.8776C45.1198 96.6121 45.2199 96.3996 45.2199 96.1872C45.2199 95.178 45.2199 94.1689 45.27 93.2128C45.3702 90.7165 44.3185 88.8045 42.3154 87.6891C38.5596 85.5646 34.7037 83.5463 30.8477 81.5812C29.4455 80.8907 27.8431 80.6251 26.3908 79.9878C21.6835 77.9695 16.7759 76.801 11.9184 75.4201C8.96386 74.5703 5.85906 74.3047 2.80434 73.8267C2.60403 73.8267 2.30356 73.9329 2.15333 73.8267C1.85287 73.6674 1.60248 73.3487 1.3521 73.1362C1.60248 72.9769 1.90294 72.6582 2.15333 72.6582C3.15488 72.6582 4.15643 72.8707 5.20806 72.9769C6.96077 73.1362 8.76356 73.1893 10.4662 73.4549C14.3222 74.0923 18.128 74.889 21.9339 75.6325C22.0842 75.6325 22.2344 75.6856 22.3846 75.7388C22.4347 75.6325 22.5349 75.5263 22.5849 75.4732H22.635Z" fill="#25795E"/>
</svg>
